<?xml version="1.0" encoding="utf-8"?>
<!-- Generator: Adobe Illustrator 24.1.2, SVG Export Plug-In . SVG Version: 6.00 Build 0)  -->
<svg version="1.1" id="Camada_1" xmlns="http://www.w3.org/2000/svg" xmlns:xlink="http://www.w3.org/1999/xlink" x="0px" y="0px"
	 viewBox="0 0 1000 1000" style="enable-background:new 0 0 1000 1000;" xml:space="preserve">
<style type="text/css">
	.st0{clip-path:url(#SVGID_2_);fill-rule:evenodd;clip-rule:evenodd;fill:#312783;}
	.st1{clip-path:url(#SVGID_2_);fill:#312783;}
	.st2{fill-rule:evenodd;clip-rule:evenodd;fill:#312783;}
</style>
<g>
	<defs>
		<path id="SVGID_1_" d="M499,174.4c180.38,0,326.6,146.22,326.6,326.6S679.38,827.6,499,827.6S172.4,681.38,172.4,501
			S318.62,174.4,499,174.4L499,174.4z"/>
	</defs>
	<clipPath id="SVGID_2_">
		<use xlink:href="#SVGID_1_"  style="overflow:visible;"/>
	</clipPath>
	<path class="st0" d="M576.23,523.28c-44.32,0-80.25-35.93-80.25-80.25c0-44.32,35.93-80.26,80.25-80.26
		c5.44,0,10.75,0.54,15.88,1.57c-2.21,5.13-4.06,10.2-5.54,15.22c-1.5-0.18-2.98-0.3-4.4-0.35c-0.9,6.01-2.84,41.5-3.19,49.5
		c-0.74,17.08-1.9,33.87-1.81,51.28c3.18-0.07,9.72-0.52,12.29-1.54c2.1-7.98,4.25-13.44,6.8-18.12c1.17,1.98,2.41,3.95,3.72,5.91
		c-2.31,3.77-3.92,7.33-4.45,10.54c3.02-0.89,6.2-2.11,9.44-3.58c0.54,0.7,1.08,1.4,1.63,2.09c-3.8,1.6-7.69,3.09-11.8,4.75
		c-0.55,15.57,13.5,13.21,23.93,8.76c0.84,0.84,1.69,1.67,2.55,2.5c-14.03,6.35-31.92,10.01-31.95-9.45
		c-2.01-0.04-6.29,1.86-12.19,1.71c0.31,11.93,0.17,19.97,2.56,31.03c18.06-0.22,34.61-8.83,46.22-18.98
		c1.49,1.34,3.02,2.68,4.59,4.01l1.42,1.2C617.48,514.72,597.86,523.28,576.23,523.28L576.23,523.28z M653.63,464.3
		c-2.61,9.51-6.92,18.31-12.58,26.05c-0.91-4.56-1.84-10.06-2.42-15.83c4.22-4.89,6.98-10.12,8.71-15.33
		C649.3,461.05,651.42,462.75,653.63,464.3L653.63,464.3z M503.27,421.58c1.85-3.29,4.14-6.83,6.31-9.43
		c6.46,14.15,15.62,21.4,24.1,31.49c6.04,7.18,20.02,21.48,22.48,33.24c-17.59-4.4-46.2-24.69-54.16-43.29
		C499.45,427.62,500.54,426.45,503.27,421.58L503.27,421.58z M569.21,379.36c0.22,8.21,1.19,16.81,1.61,25.12
		c0.41,8.17,0.98,16.49,1.47,24.68c1.02,17.09,1.36,33.58,1.84,50.93c-5-0.15-7.38-0.68-11.87-1.42
		c-5.04-23.77-23.59-38.81-36.99-60.39c-10.02-16.14-8.23-15.87,0.24-22.15C536.93,387.63,553,379.92,569.21,379.36L569.21,379.36z
		 M638.44,455.78c1.11-0.92,2.2-1.87,3.27-2.83c-0.51-0.68-1.01-1.37-1.49-2.08l-0.75-1.12
		C639.01,451.68,638.67,453.7,638.44,455.78L638.44,455.78z M497.97,439.48c6.85,16.05,42.97,35.83,58.85,40.66
		c1.12,19.5-21.49,10.44-30.43,5.38C503.55,472.6,499.58,457.73,497.97,439.48L497.97,439.48z M574.12,483.56
		c-0.27,11.97-0.21,19.95-2.56,31.02c-13.07-0.17-26.73-5.55-35.71-11.08c-5.11-3.15-9.33-6.61-13.18-10.27
		c-5.75-5.48-6.39-7.64-10.48-12.65c1.89,1.1,3.9,2.69,5.98,4.03c12.43,8.03,43.95,23.25,44.2-2.72
		C565.78,482.09,569.66,483.6,574.12,483.56L574.12,483.56z"/>
	<path class="st1" d="M522.66,261.63c1.27,9.39,25.89,90.73,21.76,40.58c-1.06-12.83-12.16-38.64-21.47-45.92L522.66,261.63
		L522.66,261.63z M768.51,385.94c23.41,4.15,33.6,23.34,33.6,23.34c-7.74-2.56-22.12-7.4-25.85-4.4
		c16.49,8.93,31.5,48.69,39.73,64.88c-23.44-24.18-41.67-30.81-59.6-25.41c16.55-9.37,34.09-1.5,37.33-3.66
		c-6.26-28.51-30.79-39.74-24.23-40.28c5.95-0.5,19.02-0.22,21.35,1.48C787.49,393.67,781.09,389.12,768.51,385.94L768.51,385.94z
		 M763.4,312.74c-11.66,10.77-25.42,8.72-25.42,8.72c4.45-3.1,12.76-8.83,12.78-11.96c-11.22,5.26-37.24-2.21-48.71-4.13
		c21.68-3.03,32.47-10.09,37.1-21.66c-2.09,12.38-13.21,18.6-13.45,21.15c16.82,7.74,32.47-0.88,30.06,2.79
		c-2.19,3.34-7.68,10.14-9.48,10.71C751.77,319.78,756.66,318.16,763.4,312.74L763.4,312.74z M675.74,286.38
		c6.29-14.57,19.7-18.29,19.7-18.29c-2.81,4.64-8.08,13.24-6.83,16.12c8.12-9.36,34.94-13.1,46.19-16
		c-18.59,11.57-25.57,22.4-25.12,34.86c-3.12-12.16,4.52-22.36,3.71-24.79c-18.51-0.24-29.32,13.99-28.61,9.65
		c0.64-3.94,2.9-12.38,4.31-13.64C683.52,275.22,679.7,278.69,675.74,286.38L675.74,286.38z M733,378.55
		c7.4,3.44,9.77,11.74,4.92,19.62c-4.84,7.88-18.8,11.11-24.16,9.17c-5.36-1.94-4.25-2.17-5.66-3.8c0.4,0.19-3.16-1.08,1.24,0.51
		c4.4,1.59,19.88-2.21,24.16-9.17C737.77,387.92,736.65,382.75,733,378.55L733,378.55z M624.91,309.56c0,0-34.83,27.49-3.48,39.82
		c18.58,4.17,35.13,2.64,51.97,1.62c-0.16,0.48-0.31,0.97-0.44,1.47c-3.13,11.95,3.43,25.4,14.67,30.04
		c10.66,4.4,21.69-0.72,25.47-11.47c-5.18,5.92-13.49,8.06-21.57,4.72c-9.65-3.98-15.86-14.46-15.43-24.92
		c27.9-1.57,66.24-8.46,106.88,22.48C722.69,297.6,620.37,350.19,624.91,309.56L624.91,309.56z M708.41,410.39
		c1.86,9.12,38.87,8.5,38.99-27.63c9.95,17.2,8.36,48.54-7.52,69.62c-0.96-7.88-6.14-12.63-11.16-15.25c0,0,6.79,9.41,4.45,22.7
		c-2.63,2.44-5.52,4.63-8.69,6.53c1.36-8.71,2.46-22.93-3.7-27.93c0,0,1.95,19.54-7.34,32.88c-3.04,0.96-6.25,1.69-9.66,2.14
		C718.58,436.45,708.41,410.39,708.41,410.39L708.41,410.39z M781.31,364.71c0,0-89.16-98.74-135.27-52.27
		C646.98,327.28,709.71,287.09,781.31,364.71L781.31,364.71z M604.2,356.73c0,0,103.05,7.63,80.8,110.26c0,0-25.54-0.21-39.19-20.44
		c5.06,0.52,30.46,0.97,20.79-20.98c0,0-49.22-13.9-32.1,67.94C590.14,455.87,574.93,411.46,604.2,356.73L604.2,356.73z
		 M606.51,362.08c-21.64,31.43-10.73,88.61,10.65,103.57c-21.67-14.25-23.64-76.24-2.57-85.71c27.04-2.23,51.38,8.84,65.16,25.77
		C666.64,380.24,627.52,365.08,606.51,362.08L606.51,362.08z M700.35,355.27c0.41,0.52,0.78,1.06,1.11,1.61
		c1.27,2.08,1.97,4.22,2.05,6.11v0c0.08,1.96-0.49,3.67-1.74,4.81v0c-0.16,0.15-0.34,0.29-0.53,0.42l0,0
		c-1.77,1.21-4.24,1.26-6.81,0.36c-2.51-0.88-5.13-2.67-7.26-5.16c-0.59-0.69-1.12-1.4-1.57-2.11c-0.47-0.74-0.87-1.49-1.19-2.23
		l-1.83-4.19l2.8,3.54l0.29,0.37l0.3,0.36c1.97,2.3,4.38,3.95,6.69,4.75c2.25,0.79,4.37,0.77,5.85-0.25h0
		c1.01-0.69,1.58-1.77,1.74-3.05c0.17-1.38-0.12-3.01-0.86-4.7l-1.92-4.4L700.35,355.27L700.35,355.27z M731.11,625.17
		c-3.14,76.94-19.14,56.47-7.88-16.76C728.44,574.52,730.79,616.89,731.11,625.17L731.11,625.17z M748.05,586.45
		c22.13,15.5,20.55,39.93,19.97,40.26C761.36,613.29,754.7,599.87,748.05,586.45L748.05,586.45z M816.26,575.13
		c-18.74-27.37-60.09-39.76-60.09-39.76C815.07,539.11,827.82,562.44,816.26,575.13L816.26,575.13z M749.96,563.17
		c7.32,4.61,16.91,17.28,16.49,17.56c-4.98-3.93-9.73-8.34-14.98-11.69c-12.58-8.02-23.83-4.86-30.34,9.03
		c-39.2,108.42-6.91,238.16,15.72,93.12c3.75-24.04,4.38-46.47,4.6-70.56c2.33,4.64,3.91,8.07,5.72,11.34
		c6.68,12.03,13.15,24.22,20.28,35.93c3.79,6.22,11.82,12.03,17.56,5.71c3.52-3.87,2.41-9.33,1.29-14.25
		c-3.09-13.63-6.99-27.07-10.54-40.59c-0.74-2.8-1.42-5.62-2.58-10.26c4.89,2.55,8.06,4.12,11.17,5.85
		c5.66,3.15,11.1,6.99,16.98,9.36c3.92,1.58,9.63,0.83,10.58-4.45c0.7-3.9-1.9-8.21-4.18-11c-5.22-6.4-10.59-12.86-16.79-18.11
		c-17.24-14.63-36.06-26.2-56.57-34.33c5.78,0.24,11.51,0.84,16.93,2.72c19.35,6.71,36.99,17.68,53.75,30.48
		c18.47,14.11,27.54,35.23,29.07,60.06c0.94,15.32-6.16,19.6-18.34,12.45c-5.24-3.08-10.15-6.9-15.78-10.78
		c1.61,8.02,3.87,15.07,4.25,22.17c0.47,8.77,0.99,17.69,0.17,26.39c-0.68,7.19-4.34,14.89-11.36,15.2
		c-4.85,0.21-9.43-2.76-13.18-6.08c-2.71-2.49-15.88-17.41-16.99-20.82c-10.4,45.04-32.83,110.42-83.77,132.8
		c-3.15-13.32,0.84-45.03,2.39-71.92c1.97-34.35,1.27-185.79,52.58-172.57C740.22,557.5,744.45,560.05,749.96,563.17L749.96,563.17z
		 M756.8,507.75c-6.92-13.28-18.85-18.86-39.66-23.7c0.35-2.01,18.68,0.17,20.44,0.51c14.27-17.07,20.99-18.53,20.99-18.53
		c-3.9-5.83-15.22-5.19-18.34-5.1l-0.02-0.14c38.39-17.4,51.68,8.69,51.68,8.69c-15.48-3.16-32.51,12.91-38.38,19.08
		c61.25,19.55,67.53,74.02,67.53,74.02c-28.28-46.79-98.1-48.58-122.71-10.98c-27.06,52.18-36.9,175.24-43.51,236.38
		c-2.99,27.72,0.26,21.4-38.97,28.63c-78.8,14.51-27.18,10.88-2.42-66.2c20.45-63.65-0.79-26.36-22.4,0.21
		c-13.15,16.17-53.86,75.6-69.2,77.82c-19.06,2.75-79.04-1.99-100.79-4.08C489.93,776.3,584.57,736.11,627,662.49
		c-107.59,70.43-195.89,75.75-317.94,93.79c-52.8,7.81-45.29,21.69-81.94-12.22c-14-12.95-22.81-23.68-33.53-39.28
		c110.21,27.83,254.89,9.37,363.31-35.14C441.82,702.45,299.81,711.75,185,686.07c-22.02-22.44-18.03-37.61-18.03-37.61
		c19.22,13.49,206.39,65.83,368.75,3.6c2.09-12.63,4.23-25.26,6.36-37.8c21.07-3.07,42.13-6.45,63.25-10.13
		c-18.73,16.19-38.34,30.69-58.42,43.43c49.2-20.64,95.68-52.27,133.94-99.31C707.67,515.28,714.79,512.62,756.8,507.75
		L756.8,507.75z M750.6,504.01c-43.93-6.54-64.73,20.53-88.49,52.5c-0.81-20.42,9.93-48.88,9.8-48.74
		C688.07,491.87,739.07,483.9,750.6,504.01L750.6,504.01z M310.33,781.07c95.93-28.45,161.92-25.06,262.42-74.19
		c20.43-9.99,46.05-27.97,7.06,4.02c-50.61,41.53-123.56,67.67-182.12,100.23c-21.18,11.78-61.95-11.35-81.76-19.45l-9.09-3.72
		l-3.12-3.59L310.33,781.07L310.33,781.07z M235.28,515.99c1.78-10.74-2.79-15.38-11.65-15.47c-9.32-0.09-18.64-0.19-27.95-0.28
		c-3.85,22.88-7.68,45.53-11.55,67.9c-3.83,22.11-7.68,44-11.55,65.61c-0.99,5.53-0.1,10.03,3.19,13.15c0,0,0-0.02,0-0.04
		c0.25,0.26,0.61,0.55,0.91,0.81c1.77,1.38,4.04,2.46,6.94,3.07c17.72,3.73,35.5,7.07,53.28,9.98c0.71-4.22,1.52-8.42,2.23-12.64
		c0.25-1.5,0.81-2.74,2.43-2.51c1.77,0.26,1.82,1.59,1.57,3.09c-0.71,4.25-1.47,8.47-2.18,12.71c17.32,2.28,34.68,4.42,52.06,5.96
		c9.61,0.85,14.88-5.15,16.46-15.41c3.84-24.97,7.81-50.02,11.65-75.1c3.85-25.16,7.8-50.41,11.7-75.7
		c-9.42-0.02-18.79-0.05-28.16-0.08c-9.83-0.03-15.09,6.09-16.66,16.11c-2.73,17.37-5.52,34.72-8.2,51.98
		c-2.68,17.2-5.43,34.38-8.1,51.47c-0.21,1.34-1.22,3.1-3.04,2.92c-1.78-0.17-2.39-2.04-2.18-3.38c3.03-19.33,6.18-38.79,9.22-58.35
		c3.04-19.61,6.18-39.29,9.27-59.03c-14.08-0.07-28.16-0.21-42.24-0.32c-3.09,19.16-6.22,38.19-9.27,57.11
		c-3.03,18.82-6.19,37.51-9.22,56.09c-0.21,1.28-1.21,2.88-2.99,2.66c-1.82-0.23-2.44-2.02-2.23-3.28
		c2.68-16.28,5.43-32.68,8.1-49.13C229.82,549.38,232.51,532.7,235.28,515.99L235.28,515.99z M307.3,626.31
		c-2.23,13.92-4.46,27.8-6.63,41.66c18.33,1.07,36.67,1.75,55.05,2.17c2.18-14.13,4.41-28.31,6.63-42.49
		C343.96,627.48,325.63,627.12,307.3,626.31L307.3,626.31z M332.82,543.47c-1.97,13.07-3.95,26.14-5.88,39.17
		c-1.92,13-3.85,25.99-5.77,38.96c13.98,0.38,27.96,0.6,41.98,0.68c1.98-13.13,3.95-26.25,5.92-39.36
		c1.98-13.11,3.95-26.24,5.93-39.36C360.93,543.62,346.85,543.57,332.82,543.47L332.82,543.47z M339.45,501.13
		c-1.97,12.52-3.9,25.03-5.82,37.5c14.03,0.07,28.11,0.13,42.19,0.07c1.93-12.51,3.85-25.03,5.82-37.55
		C367.56,501.15,353.48,501.15,339.45,501.13L339.45,501.13z M410.2,652.33c-1.57,10.23,1.63,16.39,11.29,15.71
		c9.43-0.66,18.84-1.55,28.31-2.32c3.85-25.12,7.79-50.19,11.65-75.1c3.84-24.78,7.79-49.47,11.7-74.03
		c1.56-9.83-1.62-15.81-11.29-15.75c-25.27,0.15-50.54,0.23-75.76,0.28c-4.3,28.14-8.66,56.3-12.91,84.44
		c-4.26,28.16-8.56,56.37-12.81,84.57c13.98-0.19,27.95-0.4,41.98-1.07c3.19-21.05,6.43-42.08,9.62-63.05
		c3.19-20.95,6.43-41.85,9.67-62.77c1.01-0.02,2.03-0.05,3.04-0.07c1.42-0.03,2.07,0.65,1.82,2.24c-2.69,17.77-5.52,35.59-8.2,53.41
		C415.63,616.61,412.94,634.5,410.2,652.33L410.2,652.33z M477.56,516.52c-2.27,14.18-4.51,28.42-6.69,42.68
		c-2.18,14.27-4.35,28.64-6.58,43c-1.56,10.01,1.42,15.81,11.04,14.99c6.48-0.55,12.96-1.19,19.5-1.91c-0.2,1.66-0.41,3.26-0.56,4.9
		c-11.09,1.21-22.13,2.19-33.17,3.15c-2.23,13.92-4.46,27.9-6.63,41.89c20.46-2.36,40.99-4.95,61.48-8.13
		c9.69-1.5,14.92-8.28,16.51-17.88c1.6-9.65,3.19-19.33,4.81-28.95c9.67-1.28,14.93-7.56,16.51-16.84
		c2.27-13.35,4.45-26.65,6.68-39.87c2.22-13.13,4.51-26.23,6.78-39.22c-11.7-1.12-23.4-5.92-31.4-10.85
		c-1.68-1.03-3.26-2.1-4.76-3.2c-12.35,0.12-24.69,0.22-37.02,0.32C484.4,500.7,479.13,506.71,477.56,516.52L477.56,516.52z
		 M515.14,575.18c-0.34,2.15-1.17,3.13-2.99,3.26c-1.82,0.13-2.56-0.71-2.23-2.87c1.94-12.49,4.17-24.88,6.23-37.27
		c0.22-1.3,1.22-3.05,3.04-3.13c1.82-0.07,2.39,1.61,2.18,2.89C519.3,550.42,517.08,562.77,515.14,575.18L515.14,575.18z
		 M651.37,560.92c0.76-3.96,1.53-7.94,2.33-11.9c1.58-7.9-1.62-12.36-11.29-11.5c-11.19,0.99-22.39,1.89-33.58,2.77
		c0.61-3.47,1.13-6.98,1.82-10.43c0.32-1.57,1.42-2.74,3.24-2.85c1.77-0.1,2.31,0.96,1.98,2.53c-0.38,1.76-0.56,3.55-0.81,5.34
		c14.08-1.02,28.16-2.11,42.24-3.24c1.32-6.9,2.6-13.78,4-20.61c1.58-7.68-1.57-12.31-11.24-12.16l-7.21,0.11l2.83,13.53
		l-15.17-12.88l-0.55-0.47l-8.52,0.11c-11.2,8.49-25.88,15.14-41.73,15.33c-0.92-4.25-1.47-8.05-1.81-11.79
		c-3.13,2.36-5.12,5.98-6.07,10.59l-0.03,0.18c-0.04,0.21-0.08,0.43-0.12,0.65c-2.13,12.12-4.11,24.34-6.23,36.59
		c-1.58,9.12,1.62,14.28,11.24,13.34c11.19-1.11,22.39-2.32,33.58-3.57c-0.56,3.06-1.02,6.13-1.62,9.17
		c-0.31,1.59-1.57,2.88-3.19,3.09c-1.82,0.24-2.35-0.83-2.03-2.43c0.33-1.61,0.51-3.28,0.81-4.92c-14.08,1.66-28.16,3.13-42.24,4.6
		c-1.22,7.6-2.33,15.2-3.6,22.78c-1.72,10.33,2.84,13.92,11.65,12.56c13.88-2.13,27.8-4.39,41.73-6.83
		C625.54,586.8,638.81,574.22,651.37,560.92L651.37,560.92z M251.08,425.01c-0.21,1.95-1.17,2.52-2.96,2.7
		c-0.86,0.09-1.72,0.17-2.55,0.27c1.76-11.13,3.52-22.33,5.31-33.57c0.86-0.12,1.73-0.25,2.59-0.37c1.76-0.25,2.38,0.95,2.17,2.74
		C254.12,406.23,252.6,415.65,251.08,425.01L251.08,425.01z M245.36,446.12c1.76-0.15,2.38,0.44,1.96,2.85
		c-1.14,7.07-2.24,14.11-3.34,21.12c-0.21,1.73-1.21,3.1-2.97,3.18c-0.86,0.04-1.72,0.09-2.58,0.12c1.45-8.97,2.89-18,4.34-27.06
		C243.64,446.26,244.5,446.19,245.36,446.12L245.36,446.12z M288.44,449.57c1.38-9.99-1.79-15.89-11.27-15.23
		c0.17-1.07,0.38-2.12,0.59-3.2c9.48-0.68,14.44-7.09,16.03-17.17c1.27-8.48,2.55-16.98,3.82-25.51l2.01-13.43l0.03-0.18l0-0.01
		l0.03-0.19l0.03-0.19l0-0.01l0.03-0.18l0.03-0.19l0.01-0.03l0.02-0.16l0.03-0.19l0.01-0.05l0.02-0.14l0.03-0.19l0.01-0.07
		l0.02-0.12l0.03-0.19l0.01-0.09l0.02-0.11l0.03-0.19l0.02-0.1l0.01-0.09l0.03-0.19l0.02-0.13l0.01-0.07l0.03-0.19l0.02-0.14
		l0.01-0.05l0.03-0.19l0.03-0.16l0-0.03l0.03-0.19l0.03-0.18l0-0.01l0.03-0.19l0.03-0.19l0-0.01l0.03-0.18l0.03-0.19l0-0.03
		l0.02-0.16l0.03-0.19l0.01-0.05l0.02-0.14l0.03-0.19l0.01-0.07l0.02-0.12l0.03-0.19l0.01-0.09l0.02-0.1l0.03-0.19l0.02-0.11
		l0.01-0.08l0.03-0.19l0.02-0.13l0.01-0.06l0.03-0.19l0.02-0.15l0.01-0.04l0.03-0.19l0.03-0.17l0-0.02l0.03-0.19l0.03-0.19l0,0
		l0.03-0.19l0.03-0.19l0-0.02l0.03-0.17l0.03-0.19l0.01-0.03l0.02-0.16l0.03-0.19l0.01-0.05l0.02-0.14l0.03-0.19l0.01-0.07
		l0.02-0.12l0.03-0.19l0.01-0.09l0.02-0.1l0.03-0.19l0.02-0.11l0.01-0.08l0.03-0.19l0.02-0.13l0.01-0.06l0.03-0.19l0.02-0.15
		l0.01-0.04l0.03-0.19l0.03-0.17l0-0.02l0.03-0.19l0.03-0.19l0.02-0.15l0.02-0.15l0.02-0.15l0-0.03l0.02-0.12l0.02-0.15l0.02-0.15
		l0.01-0.05l0.01-0.09l0.02-0.14l0.03-0.23l0.01-0.06l0.03-0.29l0.01-0.1l0-0.04l0.01-0.14l0.01-0.14l0.01-0.13l0-0.01l0.01-0.14
		l0.02-0.28l0-0.01l0.03-0.4l0-0.04l0-0.1l0.01-0.14l0.01-0.13l0-0.06l0-0.07l0-0.13l0-0.13l0-0.09l0-0.04l0-0.13l0-0.13l0-0.11
		v-0.02v-0.13v-0.13l0-0.05l0-0.17l0-0.03l0-0.13l0-0.13l0-0.1l0-0.03l-0.01-0.12l0-0.12l0-0.05l0-0.07l-0.01-0.12l-0.01-0.12
		l0-0.07l0-0.05l-0.01-0.12l-0.01-0.12l-0.01-0.09l0-0.03l-0.01-0.12l-0.01-0.12l-0.01-0.12l-0.01-0.12l-0.02-0.11l-0.01-0.11
		l0-0.02l-0.01-0.1l-0.02-0.11l-0.02-0.11l-0.01-0.04l-0.01-0.07l-0.02-0.11l-0.02-0.11l0-0.01l-0.02-0.1l-0.02-0.11l-0.02-0.11
		l-0.02-0.07l-0.01-0.03c-1.07-4.96-4.61-7.44-11.1-6.5c-13.96,2.02-27.91,4.44-41.85,7.15l-0.09,0.02l-0.42,0.08l-0.51,0.1
		l-0.23,0.05l-0.28,0.05l-0.51,0.1l-0.37,0.07l-0.14,0.03l-0.51,0.1l-0.51,0.1l0,0l-0.51,0.1l-0.51,0.1l-0.15,0.03l-0.87,0.17
		l-0.29,0.06l-0.22,0.05l-0.51,0.1l-0.43,0.09l-0.08,0.02l-0.51,0.1l-0.51,0.1l-0.06,0.01l-0.44,0.09l-0.51,0.1l-0.21,0.04
		l-0.3,0.06l-0.51,0.11l-0.35,0.07l-0.16,0.03l-0.51,0.1l-0.49,0.1l-0.02,0l-0.51,0.11l-0.51,0.11l-0.12,0.03l-0.39,0.08l-0.51,0.11
		l-0.27,0.06l-0.24,0.05l-0.51,0.11l-0.41,0.09l-0.1,0.02l-0.51,0.11l-0.51,0.11l-0.04,0.01l-0.47,0.1l-0.51,0.11l-0.19,0.04
		l-0.33,0.07l-0.51,0.11l-0.33,0.07l-0.18,0.04l-0.51,0.11l-0.47,0.1l-0.04,0.01l-0.51,0.11l-0.51,0.11l-0.1,0.02l-0.41,0.09
		l-0.51,0.11l-0.25,0.05l-0.26,0.06l-0.51,0.11l-0.39,0.08l-0.12,0.03l-0.51,0.11l-0.51,0.11l-0.02,0.01l-0.49,0.11l-0.51,0.11
		l-0.16,0.04l-0.35,0.08l-0.51,0.11l-0.31,0.07l-0.2,0.05l-0.51,0.11l-0.45,0.1l-0.06,0.01l-0.51,0.11l-0.51,0.11l-0.08,0.02
		l-0.43,0.09l-0.51,0.11l-0.22,0.05l-0.29,0.06l-0.51,0.11l-0.37,0.08l-0.14,0.03l-0.51,0.11l-0.51,0.11l-0.2,1.22l-0.2,1.22
		l-0.2,1.22l-0.2,1.21l-0.18,1.11l-2.77,16.95l-0.02,0.11l-0.2,1.21l-0.2,1.21l-0.2,1.21l-0.2,1.21l-0.2,1.21l-0.2,1.2l-0.59,3.61
		l-0.2,1.2l-0.02,0.13c-2.29,13.99-4.58,27.87-6.89,41.64c-2.96,17.67-5.95,35.14-8.95,52.43h30.85c4.61,0,8.51,1.06,11.7,3
		c0.05-0.4,0.1-0.81,0.15-1.22c14.88,0.03,29.76,0.05,44.66,0.06c1.03-6.67,2.06-13.34,3.09-20.02
		C285.96,465.32,287.2,457.45,288.44,449.57L288.44,449.57z M354.82,342.84l-0.09,0.6l-0.03,0.22l-0.12,0.82l-0.12,0.82l-0.12,0.82
		l-0.12,0.82l-0.12,0.82l-0.12,0.82l-2.33,15.65l-0.12,0.82l-0.12,0.82l-0.09,0.63c-1.44,9.68-2.87,19.35-4.29,29.02
		c-2.58,17.55-5.2,35.13-7.79,52.63c-1.55,10.25,1.58,16.41,11.1,16.33c20.26-0.16,40.57-0.08,60.86,0.31
		c9.48,0.18,14.41-5.81,15.99-15.86c2.55-17.11,5.13-34.19,7.68-51.15c1.55-10.31,3.12-20.59,4.7-30.85l0.05-0.31l0.05-0.31
		l0.02-0.13l0.03-0.18l0.05-0.31l0.04-0.3l0-0.01l0.05-0.31l0.05-0.31l0.03-0.17l0.02-0.14l0.05-0.31l0.05-0.31l0-0.03l0.04-0.27
		l0.05-0.31l0.03-0.21l0.02-0.1l0.05-0.31l0.05-0.31l0.01-0.08l0.04-0.23l0.05-0.31l0.04-0.25l0.01-0.06l0.05-0.31l0.05-0.31
		l0.02-0.12l0.03-0.19l0.05-0.31l0.04-0.29l0-0.02l0.05-0.31l0.05-0.31l0.02-0.16l0.02-0.15l0.05-0.31l0.05-0.31l0-0.02l0.04-0.28
		l0.05-0.31l0.03-0.2l0.02-0.11l0.05-0.31l0.05-0.31l0.01-0.06l0.04-0.24l0.05-0.31l0.04-0.24l0.01-0.07l0.05-0.31l0.05-0.31
		l0.02-0.1l0.03-0.2l0.05-0.31l0.04-0.28l0-0.03l0.05-0.31l0.05-0.31l0.02-0.14l0.03-0.16l0.05-0.31l0.05-0.31l0-0.01l0.05-0.29
		l0.05-0.31l0.03-0.19l0.02-0.12l0.05-0.31l0.05-0.31l0.01-0.05l0.04-0.26l0.05-0.31l0.04-0.22l0.01-0.08l0.05-0.3l0.05-0.31
		l0.01-0.09l0.03-0.21l0.05-0.31l0.04-0.27l0.01-0.04l0.05-0.31l0.05-0.31l0.02-0.13l0.03-0.17l0.05-0.31l0.05-0.31
		c-9.17-1.26-18.32-2.26-27.47-2.99c-10.26-0.82-15.2,7.17-16.78,16.62l-0.07,0.49l-0.07,0.49l-0.07,0.49l-0.07,0.49l-0.07,0.49
		l-0.04,0.3l-4.15,28.56c-1.52,10.45-3.03,20.94-4.55,31.44c-0.21,2.33-1.38,3.24-2.96,3.23c-1.79-0.02-2.38-0.95-2.17-3.28
		c1.55-10.54,3.1-21.09,4.65-31.63c1.39-9.44,2.78-18.89,4.17-28.31l0.04-0.28l0.07-0.49l0.07-0.49l0.07-0.49l0.07-0.49l0.07-0.49
		l0.07-0.49c1.55-9.23-1.21-17.56-9.51-17.73l-0.4-0.01l-0.06,0l-0.34-0.01l-0.12,0l-0.28-0.01l-0.17,0l-0.22,0l-0.23,0l-0.16,0
		l-0.29,0l-0.11,0l-0.35-0.01l-0.05,0l-0.4-0.01l-0.01,0l-0.39-0.01l-0.07,0l-0.33,0l-0.13,0l-0.27,0l-0.19,0l-0.21,0l-0.24,0
		l-0.15,0l-0.3,0l-0.09,0l-0.36,0l-0.04,0l-0.4,0l-0.02,0l-0.38,0h-0.08l-0.32,0l-0.14,0l-0.26,0l-0.2,0l-0.2,0l-0.25,0l-0.14,0
		l-0.31,0h-0.08l-0.37,0h-0.03l-0.39,0h-0.03l-0.36,0h-0.09l-0.31,0h-0.15l-0.25,0h-0.21h-0.19l-0.26,0l-0.13,0h-0.32H372l-0.38,0
		h-0.02l-0.4,0h-0.04h-0.35h-0.1h-0.3h-0.16h-0.24l-0.22,0h-0.18l-0.28,0h-0.12h-0.33h-0.06l-0.39,0h-0.01l-0.4,0h-0.05l-0.34,0
		l-0.11,0l-0.28,0l-0.17,0l-0.23,0l-0.23,0l-0.17,0l-0.29,0h-0.11l-0.34,0h-0.05l-0.4,0l-0.01,0l-0.39,0l-0.06,0l-0.33,0h-0.12
		l-0.27,0l-0.18,0l-0.22,0l-0.24,0l-0.16,0l-0.3,0l-0.1,0l-0.35,0h-0.04l-0.4,0.01h-0.02l-0.38,0l-0.07,0l-0.32,0l-0.13,0l-0.26,0
		l-0.19,0l-0.2,0l-0.25,0l-0.15,0l-0.31,0l-0.09,0l-0.36,0.01l-0.03,0l-0.4,0.01h-0.03l-0.37,0.01
		C357.3,342.79,356.06,342.82,354.82,342.84L354.82,342.84z M443.94,367.7c-1.99,12.78-3.97,25.62-5.93,38.48
		c-2.18,14.26-4.34,28.57-6.51,42.94c-1.59,10.01,1.59,16.25,11.06,16.66c21.58,0.93,43.18,2.18,64.78,3.71
		c-6.52-8.96-8.39-18.86-9.38-30.02c2.91,6.81,11.09,14.3,20.76,21.03l0.83-4.81c-7.23-6.37-13.37-13.48-16.78-20.43
		c-8.27-1.08-16.54-2.09-24.81-3.01c-1.21-0.13-1.79-0.85-1.58-2.36c0.1-0.87,0.24-1.72,0.38-2.58c8.03,0.95,16.07,1.97,24.1,3.08
		c-0.88-3.42,0.26-4.95,2.42-8.8c1.85-3.29,4.14-6.83,6.31-9.43c3.93,8.6,8.85,14.65,14.01,20.34c0.77-4.41,1.54-8.81,2.32-13.2
		l-0.64-1.03c-6.43-10.36-8-13.96-6.06-16.87c-12.37-2.66-24.74-5.05-37.11-7.14c0.14-0.85,0.27-1.72,0.41-2.55
		c0.38-1.46,1.17-1.98,2.34-1.77c12.78,2.33,25.57,4.92,38.35,7.86l0.97-0.71l0.02-0.01h0l0.02-0.01l0.01-0.01l0,0l0.02-0.01
		l0.01-0.01l0.01-0.01l0.02-0.01l0.01-0.01l0.01-0.01l0.02-0.02l0,0l0.02-0.01l0.02-0.01h0l0.02-0.01l0.02-0.01l0-0.01l0.02-0.01
		l0.01-0.01l0.01-0.01l0.02-0.01l0.01-0.01l0.01-0.01l0.02-0.01l0,0l0.02-0.01l0.02-0.01v0l0.02-0.01l0.02-0.01l0.01,0l0.02-0.01
		l0.01-0.01l0.01-0.01l0.02-0.01l0.01-0.01l0.01-0.01l0.02-0.02l0,0l0.02-0.01l0.02-0.01h0l0.02-0.02l0.02-0.01l0,0l0.02-0.02
		l0.01-0.01l0.01-0.01l0.02-0.01l0.01-0.01l0.01-0.01l0.02-0.02l0,0l0.02-0.01l0.02-0.01v0l0.02-0.02l0.02-0.01l0,0l0.02-0.02
		l0.01-0.01l0.01-0.01l0.02-0.02l0.01-0.01l0.01-0.01l0.04-0.03l0.02-0.02l0,0l0.02-0.02l0.02-0.01l0,0l0.02-0.02l0.01-0.01
		l0.01-0.01l0.02-0.02l0.01-0.01l0.01-0.01l0.02-0.02l0,0l0.02-0.01l0.02-0.02l0.02-0.02l0.02-0.01l0,0l0.02-0.02l0.01-0.01
		l0.01-0.01l0.02-0.02l0.01-0.01l0.01-0.01l0.02-0.02l0,0l0.02-0.01l0.02-0.02l0.08-0.06l0.08-0.06l0.08-0.06l0.08-0.06l0.08-0.06
		l0.08-0.06l0.08-0.06l0.08-0.06l0.08-0.06l0.08-0.06l0.08-0.06l0.08-0.06v0l0.08-0.06l0.08-0.06l0.08-0.06l0.08-0.06l0.08-0.06
		l0.08-0.06l0.08-0.06l0.08-0.06v0l0.08-0.06v0l0.08-0.06l0.08-0.06l0.08-0.06v0l0.08-0.06v0l0.08-0.06v0l0.08-0.06l0,0l0.08-0.06v0
		l0.08-0.06v0l0.08-0.06v0l0.08-0.06l0.08-0.06v0l0.08-0.06v0l0.08-0.06l0,0l0.08-0.06l0,0l0.08-0.06l0,0l0.08-0.06l0,0l0.08-0.06h0
		l0.08-0.06l0,0l0.08-0.06h0l0.08-0.06h0l0.08-0.06h0l0.08-0.06l0,0l0.08-0.05v0l0.08-0.05l0,0l0.08-0.05v0l0.08-0.05v0l0.08-0.06
		l0,0l0.08-0.06h0l0.17-0.11l0,0l0.08-0.05v0l0.09-0.05v0l0.08-0.05v0l0.08-0.05l0,0l0.17-0.11l0,0l0.09-0.06h0l0.08-0.05l0,0
		l0.08-0.05l0,0l0.08-0.05l0,0l0.09-0.05v0l0.09-0.05l0,0l0.09-0.05v0l0.03-0.17l0.03-0.17l0.01-0.03l0.03-0.14l0.03-0.17l0.01-0.06
		l0.02-0.11l0.1-0.52l0.02-0.12l0.01-0.05l0.03-0.17l0.03-0.15l0-0.02l0.13-0.69l0.01-0.04l0.02-0.14l0.03-0.17l0.01-0.07l0.02-0.11
		l0.12-0.64l0.01-0.05l0.13-0.69l0-0.01l0.13-0.67l0.01-0.07l0.07-0.37l0.01-0.07l0.03-0.17l0.03-0.13l0.01-0.04l0.03-0.17
		l0.03-0.16l0-0.01l0.1-0.52l0.03-0.17l0.01-0.05l0.02-0.12l0.05-0.25l0.02-0.09l0.03-0.17l0.02-0.11l0.01-0.06l0.03-0.17l0.03-0.14
		l0.01-0.03l0.03-0.17l0.03-0.17l0,0l0.03-0.17l0.03-0.17l0.01-0.03l0.03-0.15l0.03-0.17l0.01-0.06l0.02-0.12l0.03-0.17l0.02-0.08
		l0.02-0.09l0.03-0.17l0.02-0.11l0.01-0.06l0.03-0.17l0.03-0.14l0.01-0.03l0.03-0.17l0.03-0.17l0,0l0.03-0.17
		c0.81-4.3,1.62-8.58,2.43-12.83c-8.96-2.69-17.91-5.24-26.86-7.61v0l-0.74-0.2l-0.33-0.09c-1.55-0.41-3.1-0.81-4.66-1.21
		l-0.22-0.06l-0.94-0.24l-0.54-0.14l-1.49-0.38l-0.29-0.07l-0.45-0.11l-0.71-0.18l-0.03-0.01l-1.13-0.28l-0.35-0.09l-0.74-0.18
		l-0.07-0.02l-2.17-0.53l-0.16-0.04l-0.58-0.14l-0.58-0.14l-0.17-0.04l-0.74-0.18l-0.26-0.06l-1.16-0.28l-0.07-0.02l-1.09-0.26
		l-0.39-0.09l-0.74-0.18l-0.03-0.01l-0.72-0.17l-0.44-0.1l-1.05-0.24l-0.12-0.03l-0.62-0.14l-0.54-0.12l-0.2-0.05l-0.74-0.17
		l-0.22-0.05l-0.53-0.12l-0.64-0.14l-0.11-0.03l-1.05-0.23l-0.43-0.1l-0.73-0.16l-0.02,0l-0.74-0.16l-0.41-0.09l-0.34-0.07
		l-0.75-0.16l-0.08-0.02l-0.67-0.14l-0.5-0.11l-0.99-0.21l-0.18-0.04l-0.57-0.12l-0.59-0.13l-0.15-0.03l-0.74-0.16l-0.27-0.06
		l-0.48-0.1l-0.69-0.14l-0.06-0.01l-0.74-0.15l-0.36-0.08l-0.38-0.08l-0.74-0.15l-0.04-0.01l-0.02,0l-1.92-0.39l-0.25-0.05
		l-0.13-0.03l-0.61-0.12l-0.56-0.11l-0.19-0.04l-0.75-0.15l-0.23-0.04l-0.51-0.1l-0.65-0.12l-0.1-0.02l-1.07-0.21l-0.42-0.08
		l-0.74-0.14c-9.44-1.78-14.65,3.84-16.2,13.61l-0.1,0.66l-0.1,0.66l-0.1,0.66l-0.1,0.66l-0.1,0.66L443.94,367.7L443.94,367.7
		L443.94,367.7z M329.28,491.33l54.18,0.02h29.15v0c1.07-7.02,2.17-14.05,3.27-21.07c16.75,0.39,33.54,0.9,50.28,1.67
		c15.14,0.69,30.3,1.62,45.47,2.62c1.28,1.3,2.68,2.59,4.22,3.85l-0.73,4.12c-1.01-0.71-1.99-1.39-2.95-1.94
		c1.08,1.32,1.92,2.44,2.67,3.48c-0.43,2.43-0.85,4.85-1.27,7.28h-20.19c-6.79,0-12.41,2.28-16.61,6.41
		c-3.39-4.06-8.56-6.41-15.29-6.41h-40.78c1.06-6.95,2.16-13.94,3.26-20.89c-16.82-0.36-33.64-0.63-50.42-0.65
		c-16.78-0.02-16.68-0.06-36.77,0.24c-5.07,0.07-5.69-1.31-5.48-3.16c3.07-20.55,6.21-41.16,9.27-61.79
		c1.87-12.62,3.77-25.28,5.67-37.93l0.14-0.91l0.15-0.97l0.14-0.97l0.15-0.97l0.15-0.97l0.15-0.97l0.15-0.97l0.15-0.97l0.15-0.97
		l0.15-0.97l0.15-0.97l0.15-0.97l0.15-0.97l0.29-1.94l0.15-0.97l0.29-1.94l0.15-0.97l0.14-0.97l0.15-0.97l0.14-0.97l0.15-0.97
		l0.08-0.53l0.21-1.41c-13.85,0.71-27.67,1.65-41.49,2.94l-1.09,7.26l-0.16,1.06l-0.18,1.19l-0.18,1.19l-1.96,13.07l-0.18,1.19
		l-0.18,1.19l-0.18,1.19l-0.13,0.9c-2.39,15.93-4.77,31.82-7.14,47.67c-3.58,23.93-7.24,47.72-10.83,71.38l9.66,0.01
		c2.89-1.21,6.13-1.85,9.67-1.85L329.28,491.33L329.28,491.33z M534.05,354.38c24.01,8.63,45.91-27.46,52.35-46.44
		c-0.6-0.23-40.02,92.38-81.79-43.11c-30.28-98.21,33.44-38.13,53.33,40.72c1.59-7.02,17.92-85.4,32.35-65.8
		c3.55,4.82,1,46.07,0.86,57.48c2.82-3.37,42.48-55.16,34.99-24.88c-6.4,25.86-41.4,70.49-60.49,91.08
		c10.52-6.93,22.24-17.89,33.34-30.88c0.32-9.11,7.13-17.48,13.4-22.15l6.89-5.13c19.64-30.54,31.47-64.18,19.13-83.18
		c-8.2-12.62-25.97,17.75-31.22,25.27c-2.78-91.39-42.74-28.17-44.3-7.91c-9.13-3.15-30.09-81.15-107.73-61.62
		c-10.41,2.62,3.43,23.59,5.89,30.68C476.13,251.85,497.46,326.62,534.05,354.38L534.05,354.38z M342.54,334.85
		c20.29-1.89,40.42-1.79,60.64,0.8c-3.19,0.47-6.42,0.96-9.67,1.45c0.66,0.42,1.3,0.9,1.91,1.43c1.16,1,2.15,2.12,2.99,3.33
		c0.59-0.57,1.22-1.1,1.88-1.61c4.5-3.44,9.89-4.77,15.49-4.32c9.34,0.74,18.66,1.77,27.95,3.04l8.54,1.17l-0.28,1.83
		c3.06-0.8,6.52-0.9,10.35-0.18c13.23,2.49,26.38,5.44,39.43,8.74c-12.64-22.33-20.52-50.26-25.98-64.1
		c-3.12-7.9-45.03-107.89-48.73-108.21c-3.4-0.3-44.94,17.27-51.34,20.19c26.81,16.02,52.54,40.39,59.32,71.31
		c-13.77-11.56-73.3-61.33-84.69-58.46c-6.04,1.52-43,27.2-50.33,32.69c47.6,5.47,124.96,30.61,146.57,69.08
		c-66.52-17.16-146.67-10.49-221.55,9.73c0.08-0.01-0.86-3.28-12.95,14.94c-10.38,15.62-18.45,30.37-26.28,46.69
		c7.39-4.8,13.73-8.56,19.77-11.75l1.95-11.95l0.92-5.65l5.59-1.25c24.87-5.59,49.92-10.48,75.15-14.14
		c3.92-0.57,7.88-0.32,11.38,1.23l0.42-2.82l6.62-0.62C319.23,336.36,330.88,335.52,342.54,334.85L342.54,334.85z M202.81,389.54
		c-7.52,3.82-14.85,7.91-21.94,12.3c-8.21,5.09,5.21,2.09,20.25-2.03L202.81,389.54L202.81,389.54z M570.17,394.77
		c2.32-1.19,4.84-2.5,7.59-3.92c12.66-50.46,15.66-19.93-22.19-9.44c4.47-1.16,9.05-1.89,13.64-2.05
		C569.35,384.4,569.76,389.59,570.17,394.77L570.17,394.77z M554.64,381.67c-1.03,0.27-2.08,0.53-3.17,0.77
		c-3.6,0.79-7.04,1.03-10.33,0.77l-0.73,3.86C544.91,384.89,549.7,383.02,554.64,381.67L554.64,381.67z M674.76,261.79
		c2.14,2.88-4.03,22.38-4.03,22.38c17.05-29.36,9.61-47.05,9.61-47.05c-3.05,12.13-9.67,20.48-17.68,29.26
		c1.1-23.41-3.57-44.45-21.16-47.97c16.2,25.28,9.97,53.42-14.6,89.37c4.14,0.36,23.49-33.05,27.15-43.22
		c6.85,8.68,3.42,34.42,6.95,14.36C661.34,276.99,672.44,266.75,674.76,261.79L674.76,261.79z M363.32,271.11
		c-13.22-3.55-74.58-13.28-85.82-8.65c-4.86,2.01-36.03,36.47-41.32,42.75c70.22-14.01,122.63-19.41,186.36-5.22
		C407.99,286.81,383.07,277.86,363.32,271.11L363.32,271.11z M576.42,273.59c-1.63,7.32-17.76,65.82-1.03,25.41
		C580.59,286.45,579.74,259.49,576.42,273.59L576.42,273.59z"/>
	<path class="st0" d="M205.98,370.17l-28.64,192.87C163.23,527.07,156.9,386.62,205.98,370.17L205.98,370.17z"/>
</g>
<g>
	<path class="st2" d="M333.06,144.59c1.73,2.11,3.86,3.53,6.41,4.25c2.56,0.72,5.48,0.34,8.78-1.15c4.03-1.82,6.53-4.51,7.5-8.04
		c0.97-3.54,0.15-8.19-2.47-13.98c-1.95-4.33-4.42-7.72-7.41-10.17c-2.97-2.45-7.05-2.5-12.24-0.16c-2.18,0.99-4,2.37-5.43,4.16
		c-1.44,1.79-2.2,4.13-2.33,7.03c-0.12,2.9,0.71,6.31,2.49,10.25C329.78,139.88,331.34,142.49,333.06,144.59z"/>
	<path class="st2" d="M294.01,151.28c0.46-1.72-0.1-3.81-1.7-6.27c-1.17-1.79-2.53-2.99-4.1-3.59c-1.57-0.6-3.27-0.3-5.08,0.88
		l-14.33,9.31l8.3,12.78l13.9-9.02C292.52,154.35,293.53,152.99,294.01,151.28z"/>
	<path class="st2" d="M228.39,203.31c2.22,2.59,4.46,4.65,6.7,6.19c2.25,1.54,4.7,2.3,7.35,2.27c2.66-0.02,5.35-1.22,8.1-3.58
		c3.35-2.88,5-6.16,4.93-9.83c-0.06-3.66-2.16-7.9-6.3-12.72c-3.09-3.6-6.42-6.17-9.97-7.68c-3.54-1.52-7.47-0.42-11.79,3.29
		c-1.82,1.56-3.17,3.4-4.04,5.52c-0.87,2.12-0.95,4.58-0.26,7.4C223.82,196.99,225.58,200.03,228.39,203.31z"/>
	<path class="st2" d="M837.77,273.17c1.66,0.08,3.2-0.38,4.61-1.36c1.28-0.89,2.05-2.08,2.3-3.55c0.26-1.46-0.14-2.96-1.2-4.48
		l-9.78-14l-9.87,6.9l9.91,14.17C834.76,272.32,836.1,273.1,837.77,273.17z"/>
	<path class="st2" d="M111.09,360.22c1.96,2.14,4.95,3.98,8.99,5.52c3.19,1.22,6.14,1.97,8.84,2.26c2.71,0.28,5.23-0.21,7.54-1.5
		c2.32-1.29,4.13-3.62,5.42-7.01c1.58-4.13,1.47-7.8-0.34-10.99c-1.8-3.19-5.66-5.92-11.6-8.19c-4.43-1.7-8.58-2.37-12.42-2.01
		c-3.84,0.35-6.77,3.19-8.81,8.5c-0.86,2.24-1.17,4.5-0.92,6.78C108.04,355.87,109.14,358.07,111.09,360.22z"/>
	<polygon class="st2" points="868.83,312.34 849.36,314.54 856.3,327.55 	"/>
	<path class="st2" d="M555.31,96.65c1.19-1.16,1.9-2.6,2.13-4.31c0.21-1.54-0.13-2.91-1.04-4.1c-0.9-1.18-2.27-1.91-4.1-2.16
		l-16.92-2.33l-1.64,11.93l17.13,2.36C552.65,98.28,554.13,97.82,555.31,96.65z"/>
	<polygon class="st2" points="605.8,99.51 594.02,115.17 608.23,119.06 	"/>
	<path class="st2" d="M816.07,283.19c0.6,0.85,1.42,1.47,2.46,1.87c1.05,0.39,2.15,0.52,3.3,0.37c1.15-0.14,2.19-0.54,3.11-1.18
		c1.65-1.15,2.4-2.53,2.26-4.15c-0.13-1.61-0.56-2.95-1.32-4.03l-9.78-14l-9.93,6.94L816.07,283.19z"/>
	<path class="st2" d="M550.97,118.84c1-0.51,1.84-1.22,2.52-2.17c0.68-0.94,1.09-1.97,1.25-3.08c0.27-1.99-0.22-3.48-1.51-4.48
		c-1.27-1-2.55-1.59-3.86-1.77l-16.92-2.33l-1.65,12l17.13,2.36C548.96,119.52,549.97,119.34,550.97,118.84z"/>
	<path class="st2" d="M502.54,894.65c-0.87-1.67-2.17-3.07-3.89-4.19c-1.74-1.11-3.94-1.77-6.64-1.97
		c-2.19-0.17-4.27,0.14-6.24,0.91c-1.97,0.77-3.69,2.34-5.15,4.69c-1.45,2.35-2.34,5.69-2.66,10.01c-0.26,3.41-0.15,6.46,0.35,9.17
		c0.49,2.71,1.67,5.01,3.55,6.88c1.87,1.89,4.63,2.96,8.28,3.24c2.59,0.2,4.88-0.15,6.86-1.05c1.99-0.9,3.63-2.62,4.94-5.15
		c1.31-2.54,2.13-6,2.46-10.37c0.17-2.31,0.12-4.49-0.15-6.55C503.99,898.2,503.42,896.33,502.54,894.65z"/>
	<path class="st2" d="M499,47.33C248.45,47.33,45.33,250.45,45.33,501S248.45,954.67,499,954.67S952.67,751.55,952.67,501
		S749.55,47.33,499,47.33z M915.09,400.78l-29.82,6.88c-2.83,0.65-5.07,1.46-6.7,2.43c-1.63,0.97-2.73,2.23-3.3,3.78
		c-0.56,1.55-0.58,3.49-0.03,5.84l3.43,14.86l-9.11,2.1l-3.78-16.39c-0.72-3.13-0.87-5.94-0.48-8.47c0.4-2.52,1.28-4.73,2.67-6.65
		c1.38-1.92,3.13-3.5,5.26-4.77c2.13-1.26,4.61-2.22,7.42-2.86l31.98-7.38L915.09,400.78z M901.93,355.79l-29.13,9.38
		c-2.77,0.89-4.93,1.88-6.47,2.99c-1.54,1.11-2.53,2.45-2.97,4.04c-0.43,1.59-0.28,3.53,0.46,5.82l4.67,14.51l-8.9,2.87l-5.15-16.01
		c-0.98-3.06-1.37-5.85-1.19-8.4c0.19-2.54,0.88-4.82,2.1-6.85c1.21-2.03,2.82-3.75,4.84-5.19c2.02-1.43,4.41-2.6,7.15-3.48
		l31.24-10.06L901.93,355.79z M883.05,312.04l-36.03,43.84l-6.14-11.5l8.38-10.02l-9.42-17.64l-13.09,1.22l-6.14-11.5l56.48-5.57
		L883.05,312.04z M852.98,260.79c1.96,2.8,3.08,5.48,3.4,8.06c0.3,2.57-0.08,4.91-1.18,7.02c-1.09,2.11-2.67,3.9-4.75,5.35
		c-2.23,1.56-4.6,2.49-7.1,2.79c-2.5,0.29-4.98-0.32-7.45-1.87c0.23,3.27-0.08,5.89-0.92,7.85c-0.85,1.96-2.5,3.79-4.91,5.47
		c-2.93,2.05-5.63,3.07-8.1,3.08c-2.47,0.01-4.7-0.73-6.7-2.23c-2.02-1.5-3.95-3.58-5.81-6.25l-17.33-24.79l42.98-30.04
		L852.98,260.79z M794.52,191.13l31.21,32.28l-6.83,6.6l-12.01-12.42l-30.87,29.85l-7.59-7.85l30.87-29.85l-11.62-12.01
		L794.52,191.13z M759.17,165.23c3.91,0.41,7.43,1.85,10.58,4.31l15.9,12.45l-5.81,7.42l-14.06-11.01c-1.63-1.27-3.43-2.1-5.39-2.45
		c-1.97-0.36-3.85-0.21-5.67,0.44c-1.81,0.65-3.34,1.78-4.59,3.37l-0.95,1.22l23.1,18.08l-5.81,7.42l-23.1-18.08l-0.76,0.98
		c-1.05,1.34-1.7,2.96-1.96,4.87c-0.26,1.91,0.01,3.86,0.8,5.87c0.8,2.01,2.26,3.84,4.36,5.48l13.24,10.37l-5.72,7.31l-15.96-12.49
		c-2.54-1.99-4.47-4.31-5.78-6.94c-1.32-2.64-1.99-5.5-2.04-8.58c-0.05-3.08,0.52-6.21,1.71-9.37c1.19-3.17,2.94-6.23,5.24-9.17
		c3.3-4.21,6.93-7.28,10.88-9.21C751.34,165.58,755.26,164.82,759.17,165.23z M744.77,150.23l-32.29,10.17l3.39,33.6l-12.25-7.71
		l-1.78-32.59l30.62-11.22L744.77,150.23z M715.12,131.57l-27.93,44.38l-9.24-5.81l27.93-44.38L715.12,131.57z M632.15,138.57
		l23.95,11.01c4.71,2.17,7.92,1.4,9.63-2.31c0.87-1.9,0.86-3.63-0.02-5.19c-0.88-1.56-2.17-2.72-3.86-3.5l-11.73-5.39
		c-4.84-2.23-7.99-5.21-9.44-8.95c-1.45-3.75-1.21-7.71,0.72-11.9c1.04-2.25,2.4-4.08,4.08-5.47c1.68-1.39,3.53-2.3,5.56-2.77
		c2.02-0.46,4.14-0.54,6.31-0.23c2.19,0.3,4.33,0.94,6.42,1.9l26,11.96l-3.97,8.63l-25.08-11.53c-1.87-0.86-3.5-1.07-4.87-0.65
		c-1.39,0.43-2.47,1.46-3.24,3.14c-1.68,3.66-0.38,6.48,3.91,8.46l11.29,5.19c3.41,1.57,6.04,3.43,7.87,5.58
		c1.83,2.14,2.85,4.55,3.05,7.19c0.2,2.65-0.41,5.52-1.83,8.62c-1.67,3.63-3.61,6.19-5.84,7.69c-2.22,1.49-4.68,2.12-7.37,1.9
		c-2.69-0.22-5.72-1.11-9.1-2.66l-26.37-12.13L632.15,138.57z M615.36,88.98l7.07,56.31l-12.58-3.44l-1.52-12.98l-19.28-5.28
		l-8.11,10.34l-12.58-3.44l34.78-44.84L615.36,88.98z M525.65,72.82l30.9,4.25c3.38,0.47,6.12,1.46,8.22,2.98
		c2.09,1.53,3.55,3.4,4.35,5.63c0.81,2.23,1.05,4.6,0.7,7.12c-0.37,2.69-1.29,5.07-2.78,7.11c-1.48,2.03-3.62,3.43-6.43,4.19
		c2.55,2.06,4.27,4.06,5.13,6.01c0.86,1.96,1.09,4.41,0.68,7.32c-0.49,3.54-1.57,6.22-3.24,8.04c-1.67,1.82-3.73,2.96-6.19,3.4
		c-2.47,0.46-5.31,0.46-8.54,0.02l-29.96-4.13L525.65,72.82z M856.6,501c0,197.5-160.1,357.6-357.6,357.6S141.4,698.5,141.4,501
		c0-197.5,160.1-357.6,357.6-357.6S856.6,303.5,856.6,501z M442.4,84.82c0.79-2.03,1.97-3.73,3.52-5.12
		c1.54-1.38,3.35-2.48,5.4-3.26c2.06-0.8,4.24-1.28,6.54-1.45l28.53-2.17l0.72,9.47l-27.52,2.09c-2.05,0.15-3.58,0.76-4.58,1.79
		c-1.01,1.05-1.45,2.48-1.31,4.32c0.3,4.02,2.81,5.85,7.52,5.49l12.39-0.94c3.74-0.28,6.94,0.07,9.59,1.06
		c2.64,0.98,4.7,2.59,6.16,4.8c1.46,2.22,2.32,5.02,2.58,8.43c0.3,3.98-0.15,7.17-1.37,9.56c-1.22,2.38-3.06,4.13-5.53,5.24
		c-2.46,1.11-5.54,1.81-9.24,2.09l-28.95,2.2l-0.71-9.4l26.29-1.99c5.17-0.39,7.61-2.63,7.3-6.69c-0.16-2.09-1.01-3.6-2.54-4.53
		c-1.53-0.94-3.22-1.33-5.08-1.19l-12.87,0.98c-5.31,0.4-9.51-0.68-12.6-3.24c-3.09-2.57-4.8-6.15-5.15-10.76
		C441.31,89.1,441.61,86.84,442.4,84.82z M427.21,79.18l8.65,51.72l-10.69,1.79l-8.65-51.72L427.21,79.18z M379.44,90.05l8.55,29.38
		c0.81,2.79,1.74,4.98,2.8,6.55c1.06,1.57,2.38,2.6,3.96,3.08c1.58,0.48,3.52,0.38,5.83-0.29l14.64-4.26l2.61,8.98l-16.15,4.7
		c-3.08,0.9-5.88,1.21-8.43,0.95c-2.54-0.26-4.8-1.01-6.79-2.29c-1.99-1.27-3.67-2.93-5.05-4.99c-1.38-2.06-2.47-4.48-3.28-7.25
		l-9.17-31.51L379.44,90.05z M315.14,120.63c1.14-2.86,2.96-5.42,5.45-7.64c2.48-2.22,5.6-4.18,9.34-5.86
		c3.83-1.73,7.4-2.77,10.72-3.13c3.32-0.36,6.4,0.01,9.23,1.1c2.84,1.1,5.48,3.02,7.96,5.76c2.47,2.75,4.7,6.33,6.69,10.74
		c7.11,15.75,3.05,27.07-12.19,33.95c-4.02,1.81-7.78,2.83-11.32,3.06c-3.53,0.22-6.8-0.3-9.82-1.57c-3.01-1.27-5.67-3.17-7.95-5.67
		c-2.29-2.52-4.26-5.62-5.93-9.32c-1.91-4.23-3.03-8.13-3.37-11.72C313.59,126.74,313.99,123.51,315.14,120.63z M277.95,134.33
		c3.29-2.14,6.49-3.36,9.63-3.66c3.13-0.3,5.99,0.24,8.56,1.62c2.57,1.37,4.76,3.45,6.57,6.24c1.66,2.56,2.68,5.28,3.06,8.18
		c0.38,2.89,0,5.66-1.18,8.3c-1.16,2.64-3.14,4.87-5.95,6.69l-16.51,10.72l9.92,15.27l-9.15,5.94l-28.55-43.98L277.95,134.33z
		 M223.62,155.1l-1.39,14.26l-4.62,3.97l-1.34-11.91L223.62,155.1z M211.15,191.55c0.29-3.07,1.31-6.03,3.08-8.87
		c1.76-2.83,4.2-5.58,7.31-8.26c3.19-2.74,6.32-4.74,9.4-6.02c3.09-1.28,6.14-1.79,9.17-1.54c3.04,0.26,6.11,1.35,9.26,3.29
		c3.14,1.94,6.29,4.75,9.44,8.42c11.26,13.11,10.55,25.12-2.14,36.01c-3.34,2.87-6.67,4.9-10,6.12c-3.32,1.2-6.61,1.62-9.86,1.26
		c-3.25-0.37-6.33-1.44-9.23-3.21c-2.91-1.77-5.67-4.19-8.32-7.27c-3.02-3.52-5.2-6.95-6.54-10.3
		C211.39,197.84,210.86,194.64,211.15,191.55z M161.94,236.63l39.46,16.52l-21.93-36.86L190.06,204l39.72,34.23l-6.89,8
		l-29.69-25.59l20.66,36.07l-7.34,8.52l-38.16-15.77l29.69,25.59l-6.89,8l-39.72-34.23L161.94,236.63z M123.05,298.29
		c0.49-2.15,1.31-4.23,2.45-6.23l14.18-24.86l8.25,4.7l-13.67,23.98c-1.02,1.78-1.37,3.39-1.08,4.8c0.3,1.42,1.25,2.59,2.85,3.5
		c3.5,2,6.42,0.94,8.76-3.16l6.16-10.79c1.86-3.26,3.94-5.72,6.25-7.35c2.3-1.64,4.78-2.44,7.43-2.41c2.66,0.03,5.46,0.89,8.43,2.58
		c3.47,1.98,5.85,4.14,7.15,6.48c1.29,2.34,1.71,4.85,1.25,7.51c-0.46,2.66-1.6,5.6-3.44,8.83l-14.38,25.22l-8.19-4.67l13.06-22.9
		c2.57-4.5,2.08-7.77-1.46-9.79c-1.82-1.04-3.54-1.18-5.18-0.44c-1.63,0.74-2.9,1.92-3.83,3.54l-6.39,11.21
		c-2.64,4.63-5.89,7.51-9.74,8.63c-3.86,1.12-7.78,0.54-11.79-1.75c-2.15-1.23-3.86-2.75-5.09-4.54c-1.24-1.79-1.99-3.72-2.28-5.78
		C122.44,302.54,122.55,300.42,123.05,298.29z M97.81,354.34c0.2-3.33,1.04-6.91,2.5-10.74c1.5-3.93,3.3-7.18,5.41-9.77
		c2.11-2.6,4.55-4.49,7.33-5.72c2.79-1.22,6.02-1.72,9.71-1.51c3.69,0.21,7.79,1.19,12.31,2.92c16.14,6.17,21.23,17.07,15.25,32.69
		c-1.58,4.12-3.54,7.49-5.88,10.14c-2.35,2.64-5.04,4.57-8.07,5.8c-3.03,1.22-6.26,1.74-9.64,1.57c-3.4-0.18-6.98-0.99-10.78-2.44
		c-4.34-1.66-7.88-3.63-10.65-5.95c-2.78-2.32-4.77-4.89-5.98-7.74C98.12,360.77,97.61,357.68,97.81,354.34z M82.83,399.57
		l3.96-17.44l9.12,2.07l-3.82,16.82c-0.35,1.53-0.43,3.07-0.26,4.65c0.17,1.58,0.71,3.12,1.62,4.62c0.92,1.49,2.35,2.84,4.29,4.06
		c1.94,1.2,4.41,2.15,7.37,2.82c6.33,1.44,11,1.37,14.04-0.21c3.02-1.57,4.94-4.15,5.75-7.73l3.98-17.55l9.05,2.05l-4.36,19.22
		c-0.91,4.02-2.26,7.31-4.05,9.88c-1.8,2.58-3.99,4.5-6.57,5.74c-2.6,1.25-5.54,1.92-8.86,2.01c-3.33,0.08-7.01-0.33-11.05-1.25
		c-4.57-1.04-8.35-2.52-11.36-4.48c-3.01-1.95-5.3-4.24-6.87-6.89c-1.56-2.64-2.48-5.49-2.76-8.55
		C81.77,406.37,82.03,403.08,82.83,399.57z M52.33,491.96l30.8,0.06l9.46-29.31l9.46,29.31l30.8-0.06l-24.95,18.06l9.57,29.27
		l-24.88-18.15l-24.88,18.15l9.57-29.27L52.33,491.96z M352.66,905.09c-59.79-21.65-113.4-56.19-157.48-100.27
		c-62.77-62.77-106.2-144.87-120.61-236.6c2.64,0.75,5.34,1.34,8.1,1.76c14.62,88.89,57.01,168.42,117.97,229.38
		c42.65,42.64,94.38,76.2,152.04,97.52c-0.04,1.46-0.07,2.91-0.07,4.38C352.61,902.54,352.62,903.82,352.66,905.09z M356.72,866.83
		c-51.14-19.9-97.08-50.22-135.21-88.34c-56.1-56.1-95.29-129.12-109.28-210.74c2.52-0.79,4.98-1.72,7.36-2.8
		c13.49,80.62,52.04,152.74,107.38,208.08c37.19,37.19,81.95,66.79,131.78,86.31C358.01,861.8,357.33,864.3,356.72,866.83z
		 M458.97,892.76c-1,5.69-3.08,9.34-6.22,10.94c-3.14,1.61-7.15,1.98-12.02,1.12l-10.46-1.84c-2.35-0.41-4.36-0.15-6.03,0.79
		c-1.67,0.93-2.66,2.28-2.96,4.02l-1,5.7l32.83,5.77l-1.56,8.84l-43.37-7.63l2.7-15.37c0.29-1.67,1.02-3.53,2.19-5.59
		c1.16-2.07,2.85-3.78,5.06-5.12c2.21-1.35,4.89-1.75,8.03-1.19l12.16,2.14c2.46,0.43,4.47,0.34,6.05-0.27
		c1.58-0.61,2.56-2.01,2.95-4.21c0.38-2.17-0.12-3.83-1.5-5c-1.37-1.18-3.14-1.96-5.29-2.33l-24.4-4.29l1.58-8.98l27.27,4.8
		c3.56,0.63,6.48,1.69,8.76,3.19c2.28,1.49,3.88,3.45,4.77,5.89C459.39,886.58,459.55,889.46,458.97,892.76z M515.95,908.03
		c-0.48,6.28-1.75,11.22-3.83,14.83c-2.08,3.6-4.93,6.11-8.56,7.5c-3.61,1.4-8.13,1.89-13.53,1.48c-4.97-0.38-9.1-1.36-12.38-2.95
		c-3.28-1.6-5.83-3.66-7.61-6.21c-1.79-2.55-2.98-5.42-3.58-8.61c-0.59-3.2-0.73-6.74-0.44-10.64c0.35-4.64,1.39-8.78,3.14-12.44
		c1.74-3.65,4.55-6.52,8.42-8.6c3.86-2.08,8.93-2.89,15.21-2.41c4.23,0.32,7.87,1.08,10.89,2.29c3.03,1.21,5.51,2.96,7.45,5.22
		c1.93,2.27,3.3,5.11,4.12,8.53C516.07,899.43,516.3,903.44,515.95,908.03z M536.07,932.24l-3.87-50.95l10.53-0.8l3.87,50.95
		L536.07,932.24z M579.34,927.4l-6.25-50.71l10.48-1.29l6.25,50.71L579.34,927.4z M637.39,860.05
		c50.57-19.5,95.99-49.38,133.63-87.03c55.34-55.34,93.89-127.46,107.38-208.08c2.38,1.07,4.84,2.01,7.36,2.8
		c-13.99,81.62-53.17,154.64-109.28,210.74c-38.6,38.6-85.2,69.18-137.1,89.07C638.79,865.03,638.12,862.53,637.39,860.05z
		 M802.82,804.82c-44.59,44.59-98.95,79.42-159.58,101.03c0.05-1.52,0.08-3.05,0.08-4.59c0-1.21-0.02-2.42-0.05-3.63
		c58.49-21.28,110.94-55.12,154.08-98.27c60.96-60.96,103.35-140.49,117.97-229.38c2.76-0.42,5.47-1.01,8.1-1.76
		C909.02,659.96,865.59,742.06,802.82,804.82z M905.41,521.14l-24.88,18.15l9.57-29.27l-24.95-18.06l30.8,0.06l9.46-29.31
		l9.46,29.31l30.8-0.06l-24.95,18.06l9.57,29.27L905.41,521.14z"/>
</g>
</svg>
